<?xml version="1.0" encoding="UTF-8"?>
<svg id="Layer_1" xmlns="http://www.w3.org/2000/svg" version="1.1" viewBox="40 172 568 88">
  <!-- Generator: Adobe Illustrator 30.1.0, SVG Export Plug-In . SVG Version: 2.1.1 Build 136)  -->
  <defs>
    <style>
      .st0 {
        fill: #f26722;
      }

      .st1 {
        fill: #fff;
      }
    </style>
  </defs>
  <g>
    <path class="st1" d="M569.12,210.82"/>
    <polygon class="st1" points="578.3 225.34 578.3 250.8 599.93 250.8 599.93 181.11 578.3 181.11 578.3 210.82 554.77 210.82 554.77 181.11 533.23 181.11 533.23 250.8 554.77 250.8 554.77 225.34 578.3 225.34"/>
  </g>
  <polygon class="st1" points="140.61 204.62 153.69 181.11 176.49 181.11 151.37 221.61 151.37 250.8 129.79 250.8 129.79 221.61 104.62 181.11 127.55 181.11 140.61 204.62 140.61 204.62"/>
  <path class="st1" d="M69.7,224.94v25.86h-21.63v-69.69h32.12s3.69,0,3.69,0c7.8,0,13.64,1.86,17.52,5.56,3.88,3.71,5.82,8.79,5.82,15.83s-2.12,12.54-6.35,16.5c-4.24,3.97-10.69,5.95-19.37,5.95h-11.79ZM86.25,203.05c0-4.29-3.48-7.77-7.77-7.77h-8.78v15.55h8.78c4.29,0,7.77-3.48,7.77-7.77Z"/>
  <path class="st1" d="M217.64,181.11c6.66,0,11.74.58,15.26,1.71,3.52,1.14,6.36,3.25,8.51,6.35,2.15,3.09,3.23,6.85,3.23,11.29,0,3.86-.83,7.2-2.48,10.01-1.65,2.81-3.92,5.08-6.8,6.82-.58.35-1.23.68-1.95.99l16.88,32.52h-24.33l-13.64-25.24h-8.95v25.24h-21.63v-69.69h32.06s3.83,0,3.83,0ZM219.94,203c0-4.32-3.5-7.82-7.82-7.82h-8.74v15.64h8.74c4.32,0,7.82-3.5,7.82-7.82Z"/>
  <path class="st0" d="M421.48,250.89c6.09-.04,11.01-.98,14.78-2.8,3.86-1.87,6.82-4.53,8.87-7.98,2.05-3.45,3.08-7.06,3.08-10.82,0-3-.62-5.58-1.86-7.74s-2.98-3.9-5.22-5.22c-1.38-.82-3.37-1.55-5.98-2.16,3.22-1.7,5.62-3.69,7.22-5.95s2.39-4.79,2.39-7.59v-2.14c0-4.96-1.96-9.09-5.88-12.37-3.69-3.08-9.43-4.8-17.41-5l-5.08-.02h-91.13v17.21h21.96v52.48h21.54v-52.48h21.96-.03,28.71c3.82,0,6.91,2.32,6.91,5.19s-3.09,5.19-6.91,5.19h-26.1v13.63h27.22c4.87,0,8.83,3.01,8.83,6.71s-3.95,6.71-8.83,6.71h-30.88v15.14h31.82Z"/>
  <path class="st1" d="M322.08,216c0,25.4-16.39,35.91-36.25,35.91s-35.97-10.57-35.97-35.97,16.1-35.97,35.97-35.97,36.25,10.68,36.25,36.03ZM285.97,196.1c-8.05,0-14.57,5.05-14.57,19.84,0,15.55,6.52,19.84,14.57,19.84s14.57-4.29,14.57-19.84-6.52-19.84-14.57-19.84Z"/>
  <path class="st1" d="M493.27,251.94c-.8,0-1.6-.04-2.41-.04-19.87,0-35.97-10.57-35.97-35.97s16.1-35.97,35.97-35.97c.81,0,1.61.02,2.41.05v-.02h0c7.3.38,13.15,2.13,17.56,5.25,5.02,3.55,8.75,9,11.2,16.35l-19.01,4.23c-.67-2.12-1.36-3.68-2.09-4.66-1.21-1.65-2.68-2.92-4.42-3.8-1-.51-2.08-.87-3.22-1.09h0s0-.03,0-.03c-.74-.1-1.5-.14-2.27-.14-8.05,0-14.57,5.05-14.57,19.84,0,15.55,6.52,19.84,14.57,19.84.78,0,1.54-.04,2.28-.13,2.49-.48,4.46-1.66,5.94-3.29,2.11-2.31,3.64-5.67,4.59-10.08l18.87,5.7c-1.27,5.29-3.27,9.71-5.99,13.26-2.72,3.55-6.11,6.23-10.15,8.03-3.57,1.6-7.99,2.49-13.28,2.67Z"/>
</svg>